<svg width="378" height="303" viewBox="0 0 378 303" fill="none" xmlns="http://www.w3.org/2000/svg">
<g clip-path="url(#clip0_415_6959)">
<rect width="377.953" height="302.363" fill="#101010"/>
<mask id="mask0_415_6959" style="mask-type:luminance" maskUnits="userSpaceOnUse" x="0" y="0" width="378" height="303">
<path d="M0 -0.000375222H377.953V302.362H0V-0.000375222Z" fill="white"/>
</mask>
<g mask="url(#mask0_415_6959)">
<path d="M68.9325 151.682C64.2205 155.365 53.2805 164.842 32.5925 166.873C26.5819 167.469 21.7619 166.981 18.0792 165.737C14.3965 164.462 11.6885 162.677 9.92854 160.374C8.16854 158.072 7.30187 155.446 7.3552 152.468C7.3832 149.516 8.14053 146.592 9.62987 143.694C11.0925 140.824 13.2045 138.17 15.9125 135.733C18.6205 133.296 21.7885 131.481 25.3899 130.317C28.6939 129.208 31.9165 128.502 35.0565 128.178C38.1979 127.853 41.0419 127.609 43.5872 127.474C46.1325 127.312 48.2165 127.122 49.8685 126.878C51.4939 126.661 52.4685 126.066 52.7939 125.092C53.0379 123.926 52.5765 123.114 51.4392 122.654C50.3019 122.193 48.8405 121.814 47.0525 121.517C45.2659 121.218 43.2885 120.948 41.1499 120.677C39.0112 120.433 37.0605 119.918 35.3272 119.188C33.5952 118.457 32.2139 117.401 31.1845 116.02C30.1552 114.612 29.8579 112.689 30.2645 110.198C30.7792 107.138 32.3765 104.213 35.0565 101.452C37.7099 98.6623 40.9605 96.225 44.7779 94.113C48.5699 92.001 52.7125 90.3223 57.1805 89.0757C61.6485 87.8037 65.9539 87.2077 70.0699 87.2357C73.2925 87.2623 75.7019 87.749 77.2992 88.6437C78.9245 89.5637 79.9259 90.6743 80.3592 92.0277C80.7925 93.3823 80.7112 94.8717 80.1432 96.469C79.5739 98.0943 78.7085 99.637 77.5165 101.072C76.3512 102.534 74.9712 103.808 73.4005 104.864C71.8299 105.946 70.2325 106.624 68.6339 106.868C67.4699 107.11 66.5499 107.409 65.8992 107.761C65.2499 108.14 64.8979 108.437 64.8712 108.709C64.8432 108.952 65.1685 109.088 65.8459 109.142C66.4952 109.169 67.5512 108.98 69.0139 108.545C72.4792 107.572 75.4859 106.298 78.0579 104.756C80.6299 103.238 82.6605 101.586 84.1512 99.881C85.6125 98.1477 86.4792 96.4143 86.7499 94.6543C86.9939 92.8943 86.6152 91.3237 85.5859 89.9423C84.5565 88.5357 82.7965 87.3983 80.2779 86.477C77.7605 85.5557 74.4832 85.0423 70.4219 84.933C67.6325 84.933 64.5179 85.205 61.1059 85.7997C57.7219 86.4223 54.2552 87.317 50.7632 88.5077C47.2699 89.7263 43.8579 91.161 40.5272 92.8677C37.1965 94.573 34.2179 96.469 31.5912 98.581C28.9645 100.666 26.8245 102.968 25.1739 105.432C23.4939 107.896 22.5739 110.496 22.3845 113.204C22.3032 114.612 22.6272 115.884 23.4125 117.021C24.1712 118.185 25.2272 119.214 26.5005 120.136C27.7992 121.029 29.2085 121.788 30.7792 122.464C32.3499 123.114 33.8659 123.601 35.3272 123.9C31.9965 124.305 28.4765 125.145 24.8219 126.39C19.1619 128.449 14.4499 130.966 10.6592 134C6.86853 137.033 4.10587 140.201 2.3192 143.558C0.559204 146.916 -0.199464 150.246 0.0445356 153.522C0.288536 156.8 1.6152 159.697 4.05254 162.188C6.48854 164.681 10.0365 166.602 14.6939 167.902C19.3512 169.202 25.2272 169.878 32.2405 168.985C57.8299 165.626 67.7952 154.092 69.8792 153.172C69.8259 151.79 71.8032 150.952 68.9325 151.682Z" fill="white"/>
<path d="M146.865 76.4045C146.865 79.6538 145.43 83.4991 142.56 87.9125C139.689 92.3538 135.953 97.0925 131.376 102.075C126.8 107.058 121.682 112.122 115.996 117.266C110.309 122.383 104.622 127.312 98.9357 131.97C93.2504 136.627 87.8343 140.851 82.689 144.588C77.5717 148.324 73.3197 151.331 69.989 153.551C68.337 159.563 67.4983 165.006 67.4983 169.906V171.722C67.4983 172.371 67.3903 172.939 67.1463 173.455C66.929 173.942 66.361 174.292 65.413 174.483C65.1423 174.591 64.7623 174.619 64.3023 174.619C63.301 174.619 62.569 174.32 62.1637 173.726C61.757 173.128 61.541 172.452 61.541 171.722C61.7303 165.519 63.1383 158.67 65.765 151.168C68.4183 143.695 71.8304 136.112 76.0277 128.422C80.2517 120.759 85.0717 113.312 90.5423 106.11C95.985 98.8791 101.589 92.4885 107.33 86.8831C113.044 81.2791 118.73 76.8111 124.39 73.4258C130.022 70.0685 135.194 68.3618 139.906 68.3618C142.316 68.3618 144.076 68.8765 145.186 69.8778C146.297 70.9071 146.865 73.0738 146.865 76.4045ZM141.314 76.9725C141.314 75.7551 140.962 74.6711 140.258 73.6965C139.581 72.7218 138.336 72.2618 136.576 72.2618C132.893 72.2618 128.94 73.4258 124.716 75.7818C120.518 78.1378 116.266 81.3058 111.961 85.2858C107.656 89.2671 103.404 93.8978 99.2064 99.1511C94.9824 104.431 91.057 110.008 87.401 115.884C83.745 121.762 80.4957 127.746 77.625 133.838C74.7543 139.958 72.453 145.807 70.693 151.466C74.0237 149.327 78.0863 146.43 82.9063 142.719C87.6983 139.01 92.7357 134.894 97.961 130.372C103.188 125.85 108.386 121.056 113.558 116.02C118.73 110.984 123.389 106.028 127.504 101.182C131.62 96.3071 134.95 91.7858 137.496 87.5885C140.041 83.3631 141.314 79.8431 141.314 76.9725Z" fill="white"/>
<path d="M169.881 154.227C169.881 154.606 169.745 154.877 169.474 155.067L163.22 157.558C162.298 157.937 161.108 158.425 159.673 159.021C158.237 159.617 156.694 160.211 155.042 160.754C153.364 161.295 151.738 161.782 150.168 162.215C148.597 162.622 147.216 162.838 146.025 162.838C143.885 162.838 142.829 161.81 142.829 159.778C142.829 158.398 143.209 156.746 144.021 154.85C144.78 152.955 145.592 151.222 146.432 149.651C146.432 149.299 146.296 149.11 146.025 149.11C145.565 149.11 145.104 149.299 144.644 149.651C142.694 151.141 140.69 152.63 138.66 154.174C136.629 155.69 134.68 157.043 132.784 158.262C130.888 159.454 129.046 160.429 127.286 161.159C125.526 161.918 123.902 162.27 122.44 162.27C121.98 162.27 121.41 162.107 120.761 161.782C120.137 161.458 119.813 161.025 119.813 160.482C119.813 159.725 120.137 158.75 120.761 157.505C121.41 156.258 122.114 154.985 122.846 153.686C123.604 152.386 124.281 151.222 124.93 150.221C125.581 149.191 125.906 148.541 125.906 148.27C125.906 148.189 125.825 148.135 125.634 148.135C125.256 148.135 124.416 148.514 123.144 149.245C121.844 149.977 120.354 150.87 118.702 151.953C117.024 153.009 115.237 154.199 113.286 155.474C111.337 156.773 109.496 157.965 107.736 159.021C105.976 160.077 104.378 160.997 102.942 161.729C101.508 162.459 100.478 162.838 99.8291 162.838C99.2598 162.838 98.7731 162.649 98.3665 162.27C97.9611 161.918 97.7438 161.458 97.7438 160.889C97.7438 160.158 98.0691 159.291 98.7185 158.315C99.3691 157.369 100.1 156.394 100.938 155.419C101.778 154.445 102.618 153.497 103.512 152.575C104.378 151.655 105.054 150.897 105.516 150.355C105.597 150.247 105.65 150.111 105.65 149.922C105.65 149.651 105.461 149.515 105.109 149.515C105.001 149.515 104.513 149.759 103.646 150.221C102.753 150.681 101.752 151.195 100.588 151.818C99.4225 152.414 98.2038 153.035 96.9051 153.686C95.6038 154.335 94.5478 154.823 93.7091 155.202C93.0865 155.474 92.3825 155.771 91.6518 156.042C90.8931 156.311 90.1078 156.638 89.2691 157.017C89.1051 157.017 88.9438 156.881 88.8078 156.665C88.6451 156.422 88.5918 156.231 88.5918 156.042C88.5918 155.582 88.7265 155.31 88.9971 155.202C89.7558 154.931 90.4331 154.661 91.0825 154.445C91.7331 154.199 92.3278 153.957 92.8971 153.686C95.2798 152.657 97.5278 151.574 99.6118 150.41C101.697 149.273 103.566 148.189 105.244 147.161C107.168 146.05 108.981 144.886 110.633 143.694C110.824 143.613 111.121 143.477 111.473 143.342C111.852 143.206 112.204 143.125 112.582 143.125C113.314 143.125 113.693 143.641 113.693 144.669C113.693 145.399 113.286 146.321 112.448 147.431C111.608 148.541 110.66 149.678 109.604 150.842C108.548 151.979 107.601 153.09 106.761 154.174C105.921 155.23 105.516 156.042 105.516 156.583C105.516 157.342 105.894 157.694 106.626 157.694C107.168 157.694 108.277 157.179 109.957 156.095C111.608 155.039 113.504 153.821 115.642 152.441C117.754 151.033 119.894 149.651 122.033 148.27C124.145 146.89 125.906 145.834 127.286 145.075C127.665 144.805 128.45 144.262 129.642 143.477C130.861 142.693 131.917 142.313 132.837 142.313C133.298 142.313 133.65 142.475 133.893 142.801C134.11 143.125 134.218 143.505 134.218 143.965C134.218 144.697 133.84 145.671 133.054 146.89C132.269 148.081 131.376 149.299 130.401 150.545C129.453 151.818 128.56 153.009 127.774 154.174C126.989 155.31 126.609 156.177 126.609 156.718C126.609 157.558 127.152 157.991 128.261 157.991C129.94 157.991 131.89 157.151 134.164 155.474C136.412 153.821 138.714 151.979 141.016 149.922C143.344 147.891 145.565 146.05 147.677 144.371C149.816 142.719 151.576 141.879 152.957 141.879C153.417 141.879 153.688 142.042 153.797 142.367C153.878 142.693 153.932 142.963 153.932 143.125C153.932 143.505 153.824 143.883 153.661 144.235C153.472 144.615 153.282 144.994 153.093 145.346C152.822 145.725 152.361 146.374 151.712 147.295C151.061 148.217 150.438 149.245 149.844 150.355C149.22 151.466 148.678 152.602 148.164 153.741C147.65 154.905 147.406 155.933 147.406 156.881C147.406 158.533 148.381 159.371 150.33 159.371C151.332 159.371 152.469 159.21 153.714 158.885C154.961 158.561 156.206 158.181 157.452 157.774C158.725 157.369 159.862 156.935 160.945 156.53C162.001 156.095 162.813 155.798 163.354 155.609C165.197 154.877 166.604 154.335 167.525 153.957C168.066 153.686 168.636 153.442 169.177 153.253C169.366 153.253 169.529 153.387 169.664 153.605C169.8 153.849 169.881 154.038 169.881 154.227Z" fill="white"/>
<path d="M211.066 154.227C211.066 154.606 210.93 154.876 210.66 155.067L204.405 157.558C203.484 157.936 202.32 158.424 200.885 159.02C199.45 159.616 197.906 160.211 196.228 160.754C194.576 161.295 192.952 161.782 191.38 162.215C189.81 162.622 188.429 162.838 187.21 162.838C185.288 162.838 184.313 162.243 184.313 161.024C184.313 160.672 184.368 160.184 184.502 159.562C184.638 158.967 184.962 158.343 185.424 157.694C184.665 158.262 183.664 158.884 182.364 159.562C181.064 160.266 179.682 160.916 178.193 161.511C176.732 162.107 175.214 162.648 173.698 163.108C172.154 163.57 170.801 163.812 169.609 163.812C167.849 163.812 166.577 163.462 165.792 162.756C165.006 162.08 164.6 161.214 164.6 160.211C164.6 158.451 165.521 156.258 167.389 153.686C169.23 151.087 171.586 148.622 174.456 146.266C177.326 143.91 180.468 141.879 183.88 140.227C187.318 138.549 190.594 137.737 193.737 137.737C195.308 137.737 196.417 138.007 197.068 138.548C197.717 139.063 198.041 139.794 198.041 140.77C198.041 142.258 197.365 143.612 196.038 144.804C194.685 145.995 193.412 146.97 192.22 147.701C191.841 147.891 191.57 147.999 191.38 147.999C191.192 147.999 190.948 147.864 190.622 147.647C190.298 147.403 190.136 147.106 190.136 146.754C190.136 146.294 190.486 145.588 191.245 144.668C191.597 144.29 192.057 143.748 192.572 143.071C193.06 142.367 193.33 141.798 193.33 141.338C193.33 140.959 193.168 140.66 192.842 140.418C192.518 140.2 191.841 140.092 190.813 140.092C189.241 140.092 187.318 140.66 184.99 141.826C182.688 142.99 180.468 144.451 178.329 146.158C176.217 147.891 174.376 149.678 172.858 151.547C171.342 153.415 170.585 155.039 170.585 156.422C170.585 157.45 170.99 158.235 171.83 158.75C172.642 159.236 173.564 159.507 174.592 159.507C175.621 159.507 176.758 159.263 178.058 158.804C179.358 158.343 180.604 157.828 181.821 157.287C183.013 156.718 184.096 156.15 185.072 155.554C186.046 154.959 186.669 154.498 186.94 154.227C187.129 154.038 187.4 153.767 187.78 153.387C188.132 153.035 188.51 152.847 188.889 152.847C189.078 152.847 189.349 152.927 189.702 153.118C190.081 153.307 190.27 153.632 190.27 154.091C189.81 154.823 189.485 155.474 189.296 156.042C189.106 156.583 189.025 157.098 189.025 157.558C189.025 158.776 189.865 159.371 191.516 159.371C192.545 159.371 193.654 159.21 194.928 158.884C196.173 158.56 197.42 158.18 198.665 157.774C199.91 157.368 201.074 156.935 202.13 156.53C203.188 156.095 203.998 155.798 204.568 155.608C206.409 154.876 207.79 154.335 208.71 153.956C209.28 153.686 209.821 153.442 210.389 153.252C210.58 153.252 210.742 153.387 210.877 153.604C211.013 153.848 211.066 154.038 211.066 154.227Z" fill="white"/>
<path d="M251.307 173.101C251.224 175.592 249.818 176.81 247.136 176.702C245.836 176.702 243.211 176.46 239.228 175.945C235.276 175.43 230.51 175.186 224.959 175.186C218.65 175.186 212.747 175.592 207.195 176.432C204.596 179.654 202.376 182.444 200.48 184.745C198.556 187.073 197.475 188.401 197.204 188.78C196.202 189.97 194.604 191.948 192.411 194.684C190.244 197.392 187.699 200.424 184.802 203.754C181.878 207.085 178.736 210.524 175.351 214.098C171.994 217.645 168.582 220.922 165.17 223.873C161.731 226.825 158.427 229.262 155.232 231.158C152.063 233.053 149.248 234.001 146.838 234.001C144.915 234.001 143.236 233.432 141.855 232.268C140.474 231.104 139.77 229.478 139.77 227.34C139.77 225.309 140.311 222.764 141.367 219.704C142.423 216.67 144.103 213.394 146.378 209.928C148.624 206.462 151.522 202.888 155.042 199.178C158.562 195.468 162.732 191.974 167.58 188.698C172.454 185.422 178.004 182.416 184.314 179.682C190.596 176.946 197.664 174.806 205.516 173.237C209.226 168.254 212.584 163.705 215.59 159.642C218.596 155.581 220.979 152.468 222.739 150.356C222.928 150.165 223.008 149.922 223.008 149.652C223.008 149.57 222.928 149.516 222.739 149.516C222.359 149.516 221.844 149.705 221.195 150.085C221.006 150.165 220.572 150.382 219.895 150.708C219.191 151.032 218.326 151.412 217.323 151.872C216.294 152.332 215.183 152.873 213.911 153.469C212.666 154.065 211.446 154.661 210.255 155.202C209.606 155.473 208.902 155.772 208.17 156.042C207.412 156.312 206.627 156.637 205.815 157.017C205.624 157.017 205.462 156.881 205.327 156.665C205.191 156.421 205.111 156.232 205.111 156.042C205.111 155.581 205.246 155.31 205.516 155.202C206.275 154.932 206.951 154.661 207.602 154.445C208.251 154.2 208.847 153.957 209.416 153.685C211.366 152.765 213.424 151.764 215.59 150.708C217.756 149.625 219.76 148.622 221.547 147.648C223.362 146.673 224.904 145.833 226.204 145.157C227.504 144.452 228.235 144.018 228.426 143.829C229.075 143.369 229.535 143.125 229.806 143.125C230.184 143.125 230.591 143.424 231.052 143.965C231.512 144.533 231.756 145.021 231.756 145.481C231.756 145.778 231.62 146.13 231.323 146.592C231.242 146.7 230.538 147.566 229.238 149.245C227.964 150.897 226.314 152.956 224.335 155.418C222.334 157.856 220.139 160.59 217.728 163.597C215.319 166.602 212.936 169.526 210.526 172.397C217.378 171.288 224.77 170.745 232.73 170.745H239.04C240.746 170.745 242.154 170.773 243.264 170.8C244.375 170.853 245.24 170.881 245.891 170.881H247.435C249.086 170.962 250.142 171.233 250.603 171.638C251.062 172.073 251.307 172.532 251.307 173.101ZM202.619 177.406C193.738 179.058 185.776 181.63 178.763 185.097C171.723 188.564 165.792 192.462 160.918 196.822C156.071 201.154 152.362 205.84 149.762 210.821C147.163 215.832 145.89 220.678 145.89 225.39C145.89 226.689 146.188 227.8 146.783 228.721C147.379 229.641 148.382 230.101 149.762 230.101C152.632 230.101 156.179 228.477 160.376 225.2C164.574 221.897 169.096 217.7 173.89 212.554C178.708 207.437 183.583 201.778 188.538 195.576C193.494 189.376 198.178 183.309 202.619 177.406ZM247.136 126.905C247.136 127.556 246.974 128.26 246.595 129.045C246.216 129.857 245.755 130.588 245.214 131.265C244.646 131.969 244.022 132.538 243.319 132.998C242.642 133.485 241.91 133.702 241.179 133.702C239.527 133.702 238.688 132.97 238.688 131.481C238.688 130.832 238.878 130.128 239.228 129.342C239.61 128.557 240.068 127.798 240.638 127.122C241.179 126.418 241.83 125.849 242.559 125.389C243.319 124.929 243.996 124.685 244.646 124.685C246.324 124.685 247.136 125.416 247.136 126.905Z" fill="white"/>
<path d="M280.579 171.233C280.579 172.48 279.605 173.101 277.655 173.101C276.733 172.913 275.136 172.751 272.888 172.615C270.613 172.48 268.096 172.397 265.307 172.397C262.735 172.397 260.243 172.48 257.833 172.615C255.424 172.751 253.013 173.021 250.604 173.372C245.349 180.603 240.043 187.671 234.735 194.601C229.4 201.535 224.336 207.708 219.463 213.124C214.616 218.54 210.095 222.9 205.869 226.231C201.672 229.561 198.044 231.212 194.984 231.212C192.764 231.212 191.165 230.347 190.191 228.587C189.216 226.825 188.756 224.876 188.756 222.764C188.756 216.537 190.489 210.66 193.955 205.108C197.421 199.557 201.997 194.493 207.684 189.891C213.371 185.315 219.869 181.388 227.18 178.085C234.464 174.808 241.911 172.316 249.493 170.665C251.903 167.416 254.097 164.356 256.101 161.431C258.077 158.507 259.864 155.853 261.435 153.443C261.516 153.363 261.569 153.28 261.569 153.172C261.569 152.901 261.489 152.765 261.299 152.765C261.191 152.765 261.055 152.848 260.867 153.037C259.945 153.768 258.672 154.607 257.075 155.528C255.449 156.448 253.744 157.316 252.011 158.1C250.252 158.885 248.519 159.563 246.785 160.104C245.079 160.673 243.671 160.944 242.56 160.944C239.691 160.944 238.256 159.617 238.256 156.909C238.256 155.825 238.797 154.419 239.853 152.765C240.937 151.088 242.181 149.435 243.616 147.757C245.052 146.105 246.433 144.588 247.76 143.261C249.113 141.908 250.061 141.068 250.604 140.689C250.604 140.608 250.659 140.553 250.739 140.553H251.308C251.768 140.553 252.147 140.689 252.417 140.96C252.499 141.068 252.552 141.204 252.552 141.393C249.331 144.616 247.137 147.269 246.027 149.355C244.917 151.439 244.376 153.037 244.376 154.148C244.376 154.877 244.592 155.501 244.997 155.961C245.404 156.423 245.837 156.747 246.325 156.909C246.867 157.207 247.463 157.343 248.112 157.343C250.061 157.343 252.364 156.557 255.045 154.985C257.724 153.416 260.325 151.656 262.816 149.705C265.307 147.757 267.5 145.969 269.341 144.291C271.183 142.639 272.212 141.664 272.401 141.393C272.672 141.095 272.888 140.96 273.079 140.96C273.377 140.96 273.512 141.149 273.512 141.528C273.512 142.179 273.215 142.828 272.672 143.479C269.532 147.621 266.309 151.927 263.032 156.368C259.756 160.809 256.452 165.331 253.121 169.961C255.803 169.473 258.429 169.121 261.029 168.877C263.601 168.635 266.201 168.527 268.773 168.527C270.831 168.527 272.564 168.552 274.053 168.58C275.543 168.635 276.788 168.661 277.789 168.661C279.091 168.661 279.876 168.905 280.173 169.392C280.443 169.853 280.579 170.476 280.579 171.233ZM247.273 173.941C239.041 175.512 231.621 177.949 225.013 181.28C218.407 184.611 212.801 188.456 208.225 192.788C203.649 197.148 200.129 201.805 197.692 206.733C195.255 211.689 194.009 216.509 194.009 221.248C194.009 222.52 194.388 223.873 195.119 225.256C195.879 226.637 197.015 227.34 198.585 227.34C199.884 227.34 201.564 226.583 203.649 225.065C205.733 223.523 208.091 221.464 210.717 218.892C213.371 216.292 216.215 213.232 219.273 209.712C222.307 206.219 225.447 202.455 228.615 198.475C231.811 194.521 235.005 190.432 238.201 186.289C241.396 182.119 244.429 178.003 247.273 173.941Z" fill="white"/>
<path d="M322.197 154.227C322.197 154.606 322.061 154.876 321.765 155.067L315.537 157.558C314.614 157.936 313.424 158.424 311.989 159.02C310.554 159.616 309.01 160.211 307.358 160.754C305.68 161.295 304.056 161.782 302.485 162.215C300.914 162.622 299.533 162.838 298.341 162.838C296.392 162.838 295.417 162.243 295.417 161.024C295.417 160.672 295.498 160.184 295.633 159.562C295.769 158.967 296.066 158.343 296.528 157.694C295.796 158.262 294.768 158.884 293.468 159.562C292.194 160.266 290.786 160.916 289.325 161.511C287.836 162.107 286.345 162.648 284.802 163.108C283.285 163.57 281.904 163.812 280.713 163.812C278.953 163.812 277.68 163.462 276.894 162.756C276.11 162.08 275.73 161.214 275.73 160.211C275.73 158.451 276.652 156.258 278.493 153.686C280.334 151.087 282.717 148.622 285.56 146.266C288.43 143.91 291.572 141.879 295.01 140.227C298.422 138.549 301.7 137.737 304.84 137.737C306.438 137.737 307.521 138.007 308.17 138.548C308.821 139.063 309.146 139.794 309.146 140.77C309.146 142.258 308.469 143.612 307.142 144.804C305.788 145.995 304.542 146.97 303.324 147.701C302.945 147.891 302.673 147.999 302.485 147.999C302.294 147.999 302.052 147.864 301.725 147.647C301.401 147.403 301.238 147.106 301.238 146.754C301.238 146.294 301.617 145.588 302.349 144.668C302.728 144.29 303.162 143.748 303.676 143.071C304.19 142.367 304.434 141.798 304.434 141.338C304.434 140.959 304.272 140.66 303.946 140.418C303.621 140.2 302.945 140.092 301.944 140.092C300.373 140.092 298.422 140.66 296.121 141.826C293.792 142.99 291.572 144.451 289.46 146.158C287.321 147.891 285.505 149.678 283.962 151.547C282.446 153.415 281.688 155.039 281.688 156.422C281.688 157.45 282.094 158.235 282.934 158.75C283.773 159.236 284.693 159.507 285.724 159.507C286.725 159.507 287.889 159.263 289.189 158.804C290.461 158.343 291.734 157.828 292.926 157.287C294.117 156.718 295.2 156.15 296.174 155.554C297.15 154.959 297.773 154.498 298.044 154.227C298.233 154.038 298.504 153.767 298.884 153.387C299.262 153.035 299.614 152.847 299.993 152.847C300.182 152.847 300.453 152.927 300.833 153.118C301.184 153.307 301.374 153.632 301.374 154.091C300.914 154.823 300.589 155.474 300.426 156.042C300.237 156.583 300.128 157.098 300.128 157.558C300.128 158.776 300.968 159.371 302.62 159.371C303.649 159.371 304.785 159.21 306.032 158.884C307.278 158.56 308.522 158.18 309.769 157.774C311.014 157.368 312.178 156.935 313.234 156.53C314.318 156.095 315.13 155.798 315.672 155.608C317.513 154.876 318.921 154.335 319.841 153.956C320.384 153.686 320.952 153.442 321.494 153.252C321.682 153.252 321.845 153.387 321.981 153.604C322.116 153.848 322.197 154.038 322.197 154.227Z" fill="white"/>
<path d="M377.952 154.227C377.952 154.606 377.816 154.877 377.546 155.067L371.291 157.558C370.37 157.937 369.206 158.425 367.771 159.021C366.335 159.617 364.792 160.211 363.114 160.754C361.462 161.295 359.836 161.782 358.266 162.215C356.696 162.622 355.288 162.838 354.095 162.838C352.336 162.838 351.146 162.486 350.495 161.782C349.844 161.105 349.52 160.239 349.52 159.237C349.52 158.207 349.736 157.125 350.143 155.961C350.548 154.823 351.01 153.713 351.524 152.63C352.038 151.574 352.499 150.653 352.931 149.867C353.338 149.083 353.555 148.541 353.555 148.27C353.555 148.189 353.446 148.135 353.258 148.135C352.904 148.135 352.066 148.514 350.766 149.245C349.466 149.977 348.003 150.87 346.324 151.953C344.672 153.009 342.859 154.199 340.935 155.474C338.986 156.773 337.118 157.965 335.384 159.021C333.624 160.077 332.027 160.997 330.591 161.729C329.156 162.459 328.1 162.838 327.451 162.838C326.91 162.838 326.423 162.649 326.016 162.27C325.583 161.918 325.392 161.458 325.392 160.889C325.392 160.158 325.718 159.291 326.368 158.315C326.99 157.369 327.75 156.394 328.588 155.419C329.4 154.445 330.267 153.497 331.134 152.575C332.027 151.655 332.678 150.897 333.164 150.355C333.246 150.247 333.3 150.111 333.3 149.922C333.3 149.651 333.11 149.515 332.731 149.515C332.65 149.515 332.162 149.759 331.268 150.221C330.403 150.681 329.372 151.195 328.236 151.818C327.072 152.414 325.854 153.035 324.554 153.686C323.254 154.335 322.198 154.823 321.359 155.202C320.708 155.474 320.032 155.771 319.272 156.042C318.542 156.311 317.758 156.638 316.918 157.017C316.728 157.017 316.566 156.881 316.43 156.665C316.295 156.422 316.24 156.231 316.24 156.042C316.24 155.582 316.375 155.31 316.647 155.202C317.378 154.931 318.082 154.661 318.731 154.445C319.382 154.199 319.978 153.957 320.519 153.686C322.928 152.657 325.176 151.574 327.26 150.41C329.347 149.273 331.215 148.189 332.867 147.161C334.816 146.05 336.631 144.886 338.282 143.694C338.472 143.613 338.743 143.477 339.122 143.342C339.5 143.206 339.854 143.125 340.232 143.125C340.963 143.125 341.342 143.641 341.342 144.669C341.342 145.399 340.935 146.321 340.096 147.431C339.258 148.541 338.31 149.678 337.254 150.842C336.17 151.979 335.222 153.09 334.411 154.174C333.571 155.23 333.164 156.042 333.164 156.583C333.164 157.342 333.516 157.694 334.248 157.694C334.816 157.694 335.926 157.179 337.606 156.095C339.258 155.039 341.152 153.821 343.264 152.441C345.404 151.033 347.543 149.651 349.655 148.27C351.795 146.89 353.555 145.834 354.935 145.075C355.126 144.886 355.45 144.642 355.911 144.317C356.37 143.991 356.912 143.641 357.562 143.287C358.212 142.909 358.835 142.583 359.43 142.313C360.027 142.015 360.568 141.879 361.028 141.879C361.488 141.879 361.759 142.042 361.868 142.367C361.948 142.693 362.003 142.963 362.003 143.125C362.003 143.505 361.923 143.883 361.732 144.235C361.542 144.615 361.354 144.994 361.163 145.346C360.892 145.725 360.432 146.374 359.783 147.295C359.134 148.217 358.51 149.245 357.915 150.355C357.318 151.466 356.751 152.602 356.235 153.741C355.748 154.905 355.478 155.933 355.478 156.881C355.478 158.533 356.452 159.371 358.402 159.371C359.404 159.371 360.54 159.21 361.787 158.885C363.059 158.561 364.306 158.181 365.55 157.774C366.796 157.369 367.96 156.935 369.016 156.53C370.072 156.095 370.884 155.798 371.454 155.609C373.295 154.877 374.676 154.335 375.596 153.957C376.166 153.686 376.706 153.442 377.275 153.253C377.438 153.253 377.6 153.387 377.736 153.605C377.898 153.849 377.952 154.038 377.952 154.227Z" fill="white"/>
<path d="M157.56 106.814C157.912 107.219 158.075 107.707 158.075 108.276C158.075 108.816 157.94 109.304 157.669 109.683C157.397 110.063 157.019 110.36 156.559 110.55C156.097 110.739 155.611 110.82 155.069 110.82H152.551V101.235H154.691C156.64 101.235 157.615 102.047 157.615 103.672C157.615 104.214 157.479 104.675 157.235 105.08C156.992 105.459 156.613 105.758 156.152 105.947C156.721 106.136 157.208 106.407 157.56 106.814ZM153.228 105.731H154.988C155.637 105.731 156.125 105.54 156.449 105.188C156.775 104.836 156.937 104.376 156.937 103.78C156.937 103.131 156.721 102.643 156.341 102.346C155.963 102.02 155.421 101.886 154.717 101.886H153.228V105.731ZM156.748 109.711C157.181 109.386 157.425 108.926 157.425 108.303C157.425 107.652 157.181 107.166 156.695 106.84C156.207 106.515 155.637 106.352 154.988 106.352H153.228V110.226H155.041C155.719 110.226 156.288 110.063 156.748 109.711Z" fill="white"/>
<path d="M177.246 101.235V101.886H171.993V105.676H176.732V106.326H171.993V110.199H177.436V110.82H171.344V101.235H177.246Z" fill="white"/>
<path d="M196.093 107.652H191.869L190.596 110.82H189.92L193.981 100.828H194.035L198.097 110.82H197.34L196.093 107.652ZM195.849 107.03L194.009 102.318L192.113 107.03H195.849Z" fill="white"/>
<path d="M211.962 109.034C212.178 109.44 212.502 109.738 212.908 109.982C213.288 110.199 213.748 110.307 214.263 110.307C214.776 110.307 215.238 110.199 215.616 109.982C216.023 109.738 216.348 109.44 216.564 109.034C216.808 108.627 216.916 108.14 216.916 107.599V101.235H217.566V107.626C217.566 108.303 217.431 108.898 217.134 109.386C216.835 109.9 216.456 110.279 215.942 110.55C215.454 110.794 214.886 110.93 214.263 110.93C213.64 110.93 213.071 110.794 212.584 110.55C212.07 110.279 211.691 109.9 211.392 109.386C211.095 108.898 210.959 108.303 210.959 107.626V101.235H211.636V107.599C211.636 108.14 211.744 108.627 211.962 109.034Z" fill="white"/>
<path d="M236.873 101.235V101.886H234.057V110.82H233.379V101.886H230.59V101.235H236.873Z" fill="white"/>
<path d="M256.803 101.235L253.228 107.41V110.82H252.579V107.41L249.004 101.235H249.789L252.931 106.679L256.017 101.235H256.803Z" fill="white"/>
<path d="M288.35 101.939C287.972 101.83 287.565 101.776 287.213 101.776C286.562 101.776 286.076 101.911 285.697 102.236C285.318 102.535 285.128 102.94 285.128 103.428C285.128 103.78 285.21 104.051 285.426 104.295C285.616 104.539 285.886 104.728 286.212 104.89C286.509 105.052 286.916 105.216 287.43 105.406C287.944 105.622 288.405 105.811 288.757 106.027C289.108 106.218 289.406 106.515 289.65 106.867C289.893 107.219 290.029 107.68 290.029 108.248C290.029 108.763 289.893 109.25 289.65 109.656C289.378 110.063 289.028 110.387 288.594 110.604C288.134 110.82 287.62 110.93 287.024 110.93C285.994 110.93 284.992 110.604 283.99 109.954L284.316 109.412C284.641 109.656 285.046 109.874 285.534 110.063C286.022 110.252 286.509 110.36 286.969 110.36C287.349 110.36 287.754 110.279 288.106 110.116C288.486 109.954 288.784 109.711 289 109.412C289.244 109.087 289.352 108.708 289.352 108.248C289.352 107.815 289.244 107.463 289.028 107.192C288.812 106.894 288.541 106.651 288.242 106.488C287.917 106.299 287.51 106.136 287.024 105.947C286.482 105.756 286.048 105.567 285.697 105.378C285.345 105.188 285.046 104.944 284.804 104.647C284.56 104.35 284.45 103.943 284.45 103.483C284.45 103.05 284.56 102.643 284.776 102.291C285.02 101.966 285.345 101.695 285.752 101.479C286.157 101.29 286.617 101.208 287.104 101.18C287.538 101.18 287.998 101.235 288.458 101.37C288.92 101.479 289.325 101.614 289.705 101.803L289.433 102.318C289.108 102.156 288.757 102.047 288.35 101.939Z" fill="white"/>
<path d="M308.606 107.652H304.38L303.108 110.82H302.459L306.52 100.828H306.575L310.61 110.82H309.878L308.606 107.652ZM308.388 107.03L306.52 102.318L304.626 107.03H308.388Z" fill="white"/>
<path d="M324.31 101.235V110.199H329.562V110.82H323.633V101.235H324.31Z" fill="white"/>
<path d="M342.56 103.591C342.993 102.832 343.589 102.236 344.348 101.804C345.079 101.343 345.891 101.127 346.784 101.127C347.651 101.127 348.491 101.343 349.249 101.804C350.007 102.236 350.603 102.832 351.036 103.591C351.469 104.35 351.687 105.162 351.687 106.055C351.687 106.922 351.469 107.734 351.036 108.492C350.603 109.251 350.007 109.846 349.249 110.279C348.491 110.712 347.651 110.93 346.784 110.93C345.891 110.93 345.079 110.712 344.32 110.307C343.589 109.874 342.993 109.304 342.56 108.546C342.1 107.788 341.883 106.976 341.883 106.055C341.883 105.162 342.128 104.35 342.56 103.591ZM343.129 108.195C343.508 108.844 344.023 109.359 344.672 109.738C345.296 110.118 345.999 110.307 346.757 110.307C347.543 110.307 348.247 110.118 348.897 109.738C349.575 109.359 350.088 108.844 350.468 108.195C350.847 107.544 351.036 106.814 351.036 106.055C351.036 105.27 350.819 104.566 350.44 103.916C350.061 103.266 349.547 102.724 348.897 102.346C348.247 101.966 347.543 101.776 346.784 101.776C345.999 101.776 345.296 101.966 344.645 102.346C343.995 102.752 343.48 103.266 343.129 103.916C342.751 104.592 342.56 105.296 342.56 106.055C342.56 106.84 342.751 107.544 343.129 108.195Z" fill="white"/>
<path d="M372.996 101.235V111.065H372.97L365.578 102.752L365.604 110.82H364.955V101.045H364.982L372.374 109.412V101.235H372.996Z" fill="white"/>
</g>
</g>
<defs>
<clipPath id="clip0_415_6959">
<rect width="377.953" height="302.363" fill="white"/>
</clipPath>
</defs>
</svg>
