<svg width="167" height="54" viewBox="0 0 167 54" fill="none" xmlns="http://www.w3.org/2000/svg">
<g id="Group 1000005977">
<g id="Group">
<path id="Vector" fill-rule="evenodd" clip-rule="evenodd" d="M0.146851 28.5685V19.7117L32.489 0.357853L87.727 33.0807L86.7261 34.2539L32.489 2.05262V7.52812L71.2489 30.6037L68.6472 31.3857L67.9132 30.5386L32.608 9.53765L0.146851 28.5685Z" fill="white"/>
<path id="Vector_2" fill-rule="evenodd" clip-rule="evenodd" d="M50.5405 -2.28882e-05H52.2261V25.5127H50.5405V-2.28882e-05Z" fill="white"/>
<path id="Vector_3" fill-rule="evenodd" clip-rule="evenodd" d="M56.0581 5.75709H57.7437V34.0444H56.0581V5.75709Z" fill="white"/>
<path id="Vector_4" d="M4.88243 53.5767V37.4582H0V30.6201H12.5472L17.6795 40.1608L22.7781 30.6201H30.4431V53.5767H22.7781L22.7893 44.0358L17.8794 53.5767H17.4572L12.5472 44.0358V53.5767H4.88243ZM52.1879 37.4582H44.8006C42.0125 37.3714 41.6014 38.1257 43.562 39.7159C47.078 42.7224 48.7998 45.6476 48.7387 48.4914C48.672 51.3297 46.9447 53.023 43.562 53.5767H23.0614V46.7385H36.0139C39.0799 46.8254 39.4742 45.9841 37.1858 44.2259C33.409 40.8338 31.8037 37.7188 32.3648 34.8803C32.9312 32.042 34.7086 30.6201 37.7024 30.6201H52.1879V37.4582ZM50.1994 53.5767V37.4582H45.3171V30.6201H57.8644L62.9964 40.1608L68.0953 30.6201H75.7601V53.5767H68.0953L68.1063 44.0358L63.1963 53.5767H62.7743L57.8644 44.0358V53.5767H50.1994Z" fill="#FF6E3D"/>
<path id="Vector_5" d="M93.3347 36.4845C94.3948 36.4845 95.3776 36.5762 96.2825 36.7593C97.1879 36.9427 97.9747 37.2574 98.6436 37.7036C99.3123 38.15 99.8383 38.7394 100.222 39.4727C100.605 40.2057 100.797 41.1221 100.797 42.2217C100.797 43.3214 100.605 44.2378 100.222 44.9708C99.8383 45.7039 99.3123 46.2895 98.6436 46.7278C97.9747 47.1661 97.1879 47.4809 96.2825 47.6721C95.3776 47.8634 94.3948 47.9589 93.3347 47.9589H91.0838V53.218H86.5576V36.4845H93.3347ZM96.1481 42.2217C96.1481 41.8393 96.0788 41.5245 95.9402 41.2774C95.8016 41.0305 95.6099 40.8352 95.3652 40.6918C95.1205 40.5484 94.8433 40.4488 94.5334 40.3929C94.2234 40.3372 93.8973 40.3093 93.5549 40.3093H91.0838V44.1341H93.5549C93.8973 44.1341 94.2234 44.1063 94.5334 44.0504C94.8433 43.9947 95.1205 43.895 95.3652 43.7517C95.6099 43.6082 95.8016 43.4129 95.9402 43.166C96.0788 42.919 96.1481 42.6042 96.1481 42.2217ZM102.901 53.218V36.4845H110.118C110.982 36.4845 111.834 36.5721 112.674 36.7475C113.514 36.9228 114.265 37.2254 114.925 37.6559C115.586 38.0862 116.12 38.6639 116.528 39.3888C116.936 40.114 117.139 41.0265 117.139 42.1261C117.139 42.8273 117.058 43.4447 116.895 43.9788C116.732 44.5126 116.503 44.9828 116.21 45.3892C115.916 45.7956 115.57 46.1422 115.17 46.4289C114.77 46.7157 114.334 46.955 113.861 47.146L118.583 53.218H113.47L109.384 47.7677H107.427V53.218H102.901ZM107.427 44.182H110.314C110.966 44.182 111.492 44.0226 111.892 43.7037C112.291 43.385 112.491 42.8991 112.491 42.2455C112.491 41.5922 112.291 41.1061 111.892 40.7874C111.492 40.4686 110.966 40.3093 110.314 40.3093H107.427V44.182ZM119.146 44.8513C119.146 43.6879 119.337 42.5802 119.721 41.5284C120.104 40.4768 120.679 39.5483 121.445 38.7435C122.212 37.9387 123.166 37.3013 124.308 36.8311C125.449 36.3609 126.787 36.126 128.32 36.126C129.853 36.126 131.191 36.3609 132.332 36.8311C133.474 37.3013 134.428 37.9387 135.195 38.7435C135.961 39.5483 136.536 40.4768 136.92 41.5284C137.303 42.5802 137.494 43.6879 137.494 44.8513C137.494 46.0146 137.303 47.1222 136.92 48.1742C136.536 49.2259 135.961 50.1542 135.195 50.9591C134.428 51.7639 133.474 52.4013 132.332 52.8714C131.191 53.3415 129.853 53.5767 128.32 53.5767C126.787 53.5767 125.449 53.3415 124.308 52.8714C123.166 52.4013 122.212 51.7639 121.445 50.9591C120.679 50.1542 120.104 49.2259 119.721 48.1742C119.337 47.1222 119.146 46.0146 119.146 44.8513ZM132.846 44.8513C132.846 44.182 132.748 43.5645 132.553 42.9986C132.357 42.4329 132.072 41.9388 131.696 41.5165C131.321 41.0942 130.848 40.7675 130.277 40.5364C129.706 40.3052 129.054 40.1898 128.32 40.1898C127.586 40.1898 126.934 40.3052 126.363 40.5364C125.792 40.7675 125.319 41.0942 124.944 41.5165C124.569 41.9388 124.283 42.4329 124.088 42.9986C123.892 43.5645 123.794 44.182 123.794 44.8513C123.794 45.5205 123.892 46.1381 124.088 46.704C124.283 47.2696 124.569 47.7637 124.944 48.186C125.319 48.6083 125.792 48.9351 126.363 49.1662C126.934 49.3972 127.586 49.5128 128.32 49.5128C129.054 49.5128 129.706 49.3972 130.277 49.1662C130.848 48.9351 131.321 48.6083 131.696 48.186C132.072 47.7637 132.357 47.2696 132.553 46.704C132.748 46.1381 132.846 45.5205 132.846 44.8513ZM152.223 36.4845V40.4287H144.394V43.3214H151.513V47.2658H144.394V53.218H139.868V36.4845H152.223ZM167 36.4845V40.4287H159.171V43.3214H166.291V47.2658H159.171V53.218H154.645V36.4845H167Z" fill="white"/>
</g>
</g>
</svg>
