<svg width="112" height="24" viewBox="0 0 112 24" fill="none" xmlns="http://www.w3.org/2000/svg">
<path fill-rule="evenodd" clip-rule="evenodd" d="M0.000290479 4.48005H7.93225C7.39733 5.60449 6.9233 7.66007 6.46176 9.07706C5.8924 10.8237 5.57488 12.3435 5.03691 14.04L2.22106 24H10.4704L15.035 9.40376C15.5465 7.86409 16.1656 5.92195 16.4988 4.48005H23.796C23.5536 5.52945 22.9019 6.9589 22.5643 8.03747C21.9574 9.97667 19.3541 18.428 19.3541 19.8399C19.3541 22.154 20.6231 23.9999 22.844 23.9999H36.8044C36.7828 23.0179 36.1669 20.8203 35.8526 20.1599C26.1169 20.1599 26.7989 21.95 30.7365 9.55999C31.2962 7.79886 31.8267 6.74169 31.2964 4.93894C31.0592 4.13298 30.0679 0.319952 29.5069 0.319952C26.5165 0.319952 25.39 1.45613 24.4305 3.2001C24.3556 2.29375 23.8092 1.01467 23.4785 0.319952H0.951841C0.647252 1.63918 0.030517 3.09135 0 4.4799L0.000290479 4.48005ZM81.5411 16.96H76.1474L77.5711 13.4709L77.1059 11.8426L75.1671 5.73157L63.7733 23.9999H71.3881L72.9744 21.1199H82.8102L83.762 23.9999L107.157 23.9984H108.558H108.584H110.887L111.959 19.9941C111.981 19.9421 111.996 19.8906 112 19.8398H103.914H101.53C101.659 18.2719 106.824 3.17562 107.558 0H98.9915C97.596 2.9335 93.0993 21.0414 91.694 22.0797L86.6601 5.07701C86.3456 4.13328 86.0778 3.46025 85.803 2.42169C85.3599 0.74792 85.5619 0.17324 84.3113 0H76.4647C77.8132 4.1151 78.8591 8.42338 80.1524 12.6006C80.5532 13.8118 81.1139 16.0616 81.5412 16.9599L81.5411 16.96ZM33.949 4.48005C43.0357 4.48005 42.5816 2.96443 39.8582 11.3998C36.9282 20.4751 38.144 17.4368 39.6601 24C44.6421 24 45.5515 20.0904 46.8378 16.1992C47.699 13.5946 49.9212 7.01386 50.1303 4.48005H57.7449C57.1001 5.83563 56.6903 7.85969 56.2 9.32197L51.7166 24H60.6006C60.6926 22.8857 61.5891 20.239 61.9888 19.0004L63.4942 14.1187C63.9726 12.5408 64.544 10.7716 64.9733 9.21029C65.4089 7.62563 65.9876 5.38245 66.629 4.16025H74.8781L73.609 0.000150286H50.7648C50.5258 1.03534 50.2257 1.40409 50.1303 2.56005L49.4386 1.65765C48.6093 0.599012 47.8757 0.000150286 46.0056 0.000150286H33.6317C31.7899 0.000150286 33.5061 3.54921 33.9489 4.48005H33.949Z" fill="#007078"/>
</svg>
