<svg id="Layer_1" data-name="Layer 1" xmlns="http://www.w3.org/2000/svg" viewBox="0 0 449.1 80.11"><defs><style>.cls-1,.cls-2{fill:#c7009d;}.cls-1,.cls-3{stroke:#c7009d;stroke-width:11px;}.cls-1,.cls-3,.cls-4{stroke-miterlimit:10;}.cls-3{fill:none;}.cls-4{stroke:#010100;stroke-width:10px;}.cls-5{font-size:34.84px;fill:#fff;font-family:BankGothicBT-Light, BankGothic Lt BT;font-weight:300;}</style></defs><path class="cls-1" d="M105.61,321.53a56,56,0,0,1,10.91.88,21.24,21.24,0,0,1,7.35,2.81,20.72,20.72,0,0,1,7.22,8.27A25.45,25.45,0,0,1,133.72,345a27.16,27.16,0,0,1-2.58,12,20.52,20.52,0,0,1-7.27,8.39,21.29,21.29,0,0,1-7.28,2.79,55.83,55.83,0,0,1-11,.89H79.44V321.53ZM104.49,328H87.4v34.44h17.09q11.55,0,16.32-4T125.58,345q0-9-4.86-13T104.49,328Z" transform="translate(-73.94 -301.59)"/><path class="cls-1" d="M149.92,369.12V321.59h8v47.53Z" transform="translate(-73.94 -301.59)"/><path class="cls-2" d="M217.24,352.65a.21.21,0,0,1,0-.08C217.09,352.43,217.06,352.42,217.24,352.65Z" transform="translate(-73.94 -301.59)"/><path class="cls-2" d="M227.83,339.24s-1.32-15.1,12.64-29.87l-17.91-1.66v39.9q0,4.41.18,6.91c.12,1.62-5.47-3.16-5.5-1.95.29.27,1,1.06,1.76,1.81-.38-.37-.76-.74-1.12-1.06l-35.57-31.79h-5v47.53h7.28v-28c0-1,0-1.93,0-2.81,1.21-1.86,2.56-3.78,3.49-2.95q.54.49.81.72l36.51,33.05,14.19,3.63C231.79,361.58,227.31,351.39,227.83,339.24ZM182,341a.32.32,0,0,0,.13.13C182.05,341.17,182,341.14,182,341Z" transform="translate(-73.94 -301.59)"/><path class="cls-3" d="M217.24,352.65a.21.21,0,0,1,0-.08C217.09,352.43,217.06,352.42,217.24,352.65Z" transform="translate(-73.94 -301.59)"/><path class="cls-3" d="M227.83,339.24s-1.32-15.1,12.64-29.87l-17.91-1.66v39.9q0,4.41.18,6.91c.12,1.62-5.47-3.16-5.5-1.95.29.27,1,1.06,1.76,1.81-.38-.37-.76-.74-1.12-1.06l-35.57-31.79h-5v47.53h7.28v-28c0-1,0-1.93,0-2.81,1.21-1.86,2.56-3.78,3.49-2.95q.54.49.81.72l36.51,33.05,14.19,3.63C231.79,361.58,227.31,351.39,227.83,339.24ZM182,341a.32.32,0,0,0,.13.13C182.05,341.17,182,341.14,182,341Z" transform="translate(-73.94 -301.59)"/><path class="cls-2" d="M319.27,352.49s0,0,0,.07C319.45,352.34,319.42,352.34,319.27,352.49Z" transform="translate(-73.94 -301.59)"/><path class="cls-2" d="M354.2,321.44l-35.57,31.8c-.36.32-.74.68-1.12,1.06.72-.76,1.47-1.54,1.76-1.81,0-1.22-5.62,3.57-5.5,1.94s.18-4,.18-6.9v-39.9L296,309.29c14,14.76,12.64,29.87,12.64,29.87.52,12.14-4,22.34-11.74,33.44L311.12,369l36.52-33.06c.18-.14.45-.38.8-.71.93-.84,2.28,1.08,3.5,3,0,.88,0,1.8,0,2.8v28h7.28V321.44Zm.19,19.59a.4.4,0,0,0,.13-.13C354.5,341.06,354.46,341.08,354.39,341Z" transform="translate(-73.94 -301.59)"/><path class="cls-3" d="M319.27,352.49s0,0,0,.07C319.45,352.34,319.42,352.34,319.27,352.49Z" transform="translate(-73.94 -301.59)"/><path class="cls-3" d="M354.2,321.44l-35.57,31.8c-.36.32-.74.68-1.12,1.06.72-.76,1.47-1.54,1.76-1.81,0-1.22-5.62,3.57-5.5,1.94s.18-4,.18-6.9v-39.9L296,309.29c14,14.76,12.64,29.87,12.64,29.87.52,12.14-4,22.34-11.74,33.44L311.12,369l36.52-33.06c.18-.14.45-.38.8-.71.93-.84,2.28,1.08,3.5,3,0,.88,0,1.8,0,2.8v28h7.28V321.44Zm.19,19.59a.4.4,0,0,0,.13-.13C354.5,341.06,354.46,341.08,354.39,341Z" transform="translate(-73.94 -301.59)"/><path class="cls-1" d="M375.46,333.85c0-4.31.77-7.27,2.32-8.86s4.49-2.38,8.83-2.38h32.88c4.29,0,7.2.79,8.75,2.36s2.31,4.54,2.31,8.88v25q0,6.57-2.31,8.91c-1.55,1.56-4.46,2.34-8.75,2.34H386.61c-4.34,0-7.29-.8-8.83-2.39s-2.32-4.54-2.32-8.86Zm7.92,29.68h39.35V329.09H383.38Z" transform="translate(-73.94 -301.59)"/><path class="cls-1" d="M448.55,370.15V322.61h8v40.92h36v6.62Z" transform="translate(-73.94 -301.59)"/><path class="cls-1" d="M509.58,370.15V322.61h8v47.54Z" transform="translate(-73.94 -301.59)"/><ellipse class="cls-4" cx="194.61" cy="39.39" rx="22.83" ry="23.33"/><text class="cls-5" transform="translate(174.32 46.64)">DI</text></svg>